<svg width="789" height="134" xmlns="http://www.w3.org/2000/svg" xmlns:undefined="http://sodipodi.sourceforge.net/DTD/sodipodi-0.dtd" xml:space="preserve" version="1.1">
 <defs id="defs6">
  <clipPath id="clipPath16" clipPathUnits="userSpaceOnUse">
   <path id="path14" d="m-93.50311,780.92563l841.89,0l0,-595.276l-841.89,0l0,595.276z"/>
  </clipPath>
 </defs>
 <g>
  <title>Layer 1</title>
  <g id="svg_1">
   <g transform="matrix(1.33333 0 0 -1.33333 0 793.701)" id="g18">
    <path fill-rule="nonzero" fill="#19142e" id="path20" d="m40.003,545.04105l-30.05,-30.016c-6.258,8.368 -9.953,18.756 -9.953,29.998c0,27.75 22.485,50.253 50.235,50.253c11.277,0 21.684,-3.713 30.067,-9.988l-29.858,-29.824l-8.524,8.524l-20.847,0l18.93,-18.947z"/>
   </g>
   <g transform="matrix(1.33333 0 0 -1.33333 0 793.701)" id="g22">
    <path fill-rule="nonzero" fill="#19142e" id="path24" d="m100.46931,545.02348c0,-27.731 -22.485,-50.234 -50.234,-50.234c-11.174,0 -21.493,3.642 -29.842,9.813l30.051,29.998l8.523,-8.523l20.847,0l-18.929,18.946l29.806,29.771c6.153,-8.331 9.778,-18.633 9.778,-29.771"/>
   </g>
   <g transform="matrix(1.33333 0 0 -1.33333 0 793.701)" id="g26">
    <path fill-rule="nonzero" fill="#19142e" id="path28" d="m149.3263,542.50977c-2.465,7.926 -3.851,12.409 -4.161,13.45c-0.31,1.037 -0.533,1.859 -0.666,2.463c-0.554,-2.146 -2.137,-7.451 -4.752,-15.913l9.579,0zm4.525,-15.284l-2.666,8.748l-13.398,0l-2.665,-8.748l-8.397,0l12.972,36.904l9.528,0l13.021,-36.904l-8.395,0z"/>
   </g>
   <g transform="matrix(1.33333 0 0 -1.33333 0 793.701)" id="g30">
    <path fill-rule="nonzero" fill="#19142e" id="path32" d="m188.56751,537.43067c0,-3.318 -1.194,-5.933 -3.583,-7.844c-2.388,-1.91 -5.71,-2.864 -9.967,-2.864c-3.922,0 -7.391,0.737 -10.408,2.212l0,7.24c2.48,-1.106 4.58,-1.886 6.297,-2.338c1.719,-0.453 3.289,-0.678 4.714,-0.678c1.71,0 3.021,0.326 3.934,0.98c0.914,0.653 1.371,1.625 1.371,2.916c0,0.72 -0.201,1.361 -0.604,1.922c-0.401,0.561 -0.993,1.101 -1.773,1.623c-0.778,0.518 -2.367,1.347 -4.762,2.489c-2.247,1.054 -3.931,2.069 -5.054,3.041c-1.123,0.972 -2.02,2.103 -2.689,3.394c-0.672,1.29 -1.006,2.798 -1.006,4.526c0,3.249 1.102,5.805 3.305,7.666c2.204,1.86 5.25,2.791 9.139,2.791c1.91,0 3.732,-0.228 5.467,-0.679c1.734,-0.454 3.549,-1.09 5.443,-1.911l-2.514,-6.058c-1.961,0.805 -3.582,1.366 -4.865,1.683c-1.281,0.32 -2.543,0.478 -3.783,0.478c-1.475,0 -2.607,-0.344 -3.394,-1.03c-0.788,-0.688 -1.181,-1.584 -1.181,-2.69c0,-0.688 0.158,-1.287 0.477,-1.797c0.318,-0.511 0.826,-1.006 1.521,-1.484c0.695,-0.478 2.342,-1.336 4.94,-2.576c3.436,-1.642 5.79,-3.289 7.065,-4.941c1.272,-1.651 1.91,-3.674 1.91,-6.071"/>
   </g>
   <g transform="matrix(1.33333 0 0 -1.33333 0 793.701)" id="g34">
    <path fill-rule="nonzero" fill="#19142e" id="path36" d="m216.92442,537.43067c0,-3.318 -1.194,-5.933 -3.583,-7.844c-2.388,-1.91 -5.71,-2.864 -9.967,-2.864c-3.922,0 -7.391,0.737 -10.408,2.212l0,7.24c2.48,-1.106 4.58,-1.886 6.297,-2.338c1.719,-0.453 3.289,-0.678 4.714,-0.678c1.709,0 3.021,0.326 3.934,0.98c0.914,0.653 1.371,1.625 1.371,2.916c0,0.72 -0.201,1.361 -0.604,1.922c-0.402,0.561 -0.993,1.101 -1.773,1.623c-0.778,0.518 -2.367,1.347 -4.763,2.489c-2.246,1.054 -3.93,2.069 -5.053,3.041c-1.123,0.972 -2.02,2.103 -2.689,3.394c-0.672,1.29 -1.006,2.798 -1.006,4.526c0,3.249 1.102,5.805 3.305,7.666c2.204,1.86 5.25,2.791 9.138,2.791c1.911,0 3.733,-0.228 5.468,-0.679c1.734,-0.454 3.549,-1.09 5.442,-1.911l-2.513,-6.058c-1.961,0.805 -3.582,1.366 -4.865,1.683c-1.281,0.32 -2.543,0.478 -3.783,0.478c-1.475,0 -2.607,-0.344 -3.394,-1.03c-0.788,-0.688 -1.182,-1.584 -1.182,-2.69c0,-0.688 0.159,-1.287 0.477,-1.797c0.319,-0.511 0.826,-1.006 1.522,-1.484c0.695,-0.478 2.342,-1.336 4.94,-2.576c3.435,-1.642 5.789,-3.289 7.064,-4.941c1.273,-1.651 1.911,-3.674 1.911,-6.071"/>
   </g>
   <g transform="matrix(1.33333 0 0 -1.33333 0 793.701)" id="g38">
    <path fill-rule="nonzero" fill="#19142e" id="path40" d="m244.75251,527.22566l-21.167,0l0,36.752l21.167,0l0,-6.384l-13.374,0l0,-8.07l12.443,0l0,-6.386l-12.443,0l0,-9.476l13.374,0l0,-6.436z"/>
   </g>
   <g transform="matrix(1.33333 0 0 -1.33333 0 793.701)" id="g42">
    <path fill-rule="nonzero" fill="#19142e" id="path44" d="m267.982,527.22566l-8.849,28.834l-0.227,0c0.319,-5.867 0.477,-9.78 0.477,-11.74l0,-17.094l-6.963,0l0,36.752l10.609,0l8.698,-28.105l0.151,0l9.226,28.105l10.609,0l0,-36.752l-7.265,0l0,17.396c0,0.82 0.012,1.768 0.037,2.84c0.025,1.073 0.138,3.922 0.339,8.547l-0.226,0l-9.476,-28.783l-7.14,0z"/>
   </g>
   <g transform="matrix(1.33333 0 0 -1.33333 0 793.701)" id="g46">
    <path fill-rule="nonzero" fill="#19142e" id="path48" d="m307.17591,543.23835l0,-9.577l5.076,0c2.146,0 3.73,0.408 4.751,1.231c1.024,0.82 1.533,2.078 1.533,3.772c0,3.048 -2.178,4.574 -6.534,4.574l-4.826,0zm0,6.185l4.522,0c2.115,0 3.643,0.327 4.59,0.979c0.946,0.655 1.419,1.736 1.419,3.245c0,1.407 -0.513,2.415 -1.547,3.028c-1.029,0.612 -2.659,0.918 -4.888,0.918l-4.096,0l0,-8.17zm-7.795,14.554l11.44,0c5.21,0 8.994,-0.742 11.348,-2.223c2.356,-1.484 3.533,-3.844 3.533,-7.077c0,-2.197 -0.516,-3.998 -1.546,-5.406c-1.03,-1.408 -2.402,-2.254 -4.109,-2.538l0,-0.253c2.328,-0.518 4.009,-1.49 5.039,-2.916c1.029,-1.424 1.546,-3.318 1.546,-5.68c0,-3.352 -1.211,-5.966 -3.634,-7.843c-2.42,-1.877 -5.709,-2.816 -9.865,-2.816l-13.752,0l0,36.752z"/>
   </g>
   <g transform="matrix(1.33333 0 0 -1.33333 0 793.701)" id="g50">
    <path fill-rule="nonzero" fill="#19142e" id="path52" d="m333.97279,527.22566l0,36.752l7.794,0l0,-30.316l14.907,0l0,-6.436l-22.701,0z"/>
   </g>
   <g transform="matrix(1.33333 0 0 -1.33333 0 793.701)" id="g54">
    <path fill-rule="nonzero" fill="#19142e" id="path56" d="m367.63191,548.84477l7.667,15.133l8.397,0l-12.194,-22.449l0,-14.303l-7.743,0l0,14.053l-12.191,22.699l8.446,0l7.618,-15.133z"/>
   </g>
   <g transform="matrix(1.33333 0 0 -1.33333 0 793.701)" id="g58">
    <path fill-rule="nonzero" fill="#19142e" id="path60" d="m429.52549,563.97755l7.87,0l-12.496,-36.752l-8.496,0l-12.469,36.752l7.868,0l6.913,-21.87c0.385,-1.291 0.786,-2.795 1.194,-4.514c0.411,-1.716 0.669,-2.912 0.766,-3.582c0.186,1.542 0.814,4.241 1.886,8.096l6.964,21.87z"/>
   </g>
   <g transform="matrix(1.33333 0 0 -1.33333 0 793.701)" id="g62">
    <path fill-rule="nonzero" fill="#19142e" id="path64" d="m447.04399,545.65138c0,-4.107 0.779,-7.197 2.337,-9.275c1.559,-2.079 3.889,-3.118 6.99,-3.118c6.216,0 9.324,4.129 9.324,12.393c0,8.279 -3.089,12.42 -9.275,12.42c-3.1,0 -5.438,-1.044 -7.015,-3.13c-1.575,-2.088 -2.361,-5.185 -2.361,-9.29m26.823,0c0,-6.082 -1.508,-10.759 -4.524,-14.026c-3.017,-3.269 -7.341,-4.903 -12.972,-4.903c-5.632,0 -9.955,1.634 -12.972,4.903c-3.016,3.267 -4.525,7.96 -4.525,14.078c0,6.115 1.513,10.788 4.536,14.012c3.026,3.228 7.363,4.841 13.01,4.841c5.649,0 9.969,-1.627 12.961,-4.876c2.989,-3.254 4.486,-7.928 4.486,-14.029"/>
   </g>
   <g transform="matrix(1.33333 0 0 -1.33333 0 793.701)" id="g66">
    <path fill-rule="nonzero" fill="#19142e" id="path68" d="m493.37309,527.22566l-7.792,0l0,30.267l-9.981,0l0,6.485l27.752,0l0,-6.485l-9.979,0l0,-30.267z"/>
   </g>
   <path fill-rule="nonzero" fill="#19142e" id="path70" d="m677.88556,41.73118l10.392,0l0,49.00266l-10.392,0l0,-49.00266z"/>
   <g transform="matrix(1.33333 0 0 -1.33333 0 793.701)" id="g72">
    <path fill-rule="nonzero" fill="#19142e" id="path74" d="m556.16221,527.22566l-9.903,0l-15.989,27.802l-0.228,0c0.319,-4.909 0.478,-8.413 0.478,-10.507l0,-17.295l-6.962,0l0,36.752l9.83,0l15.961,-27.525l0.176,0c-0.25,4.775 -0.378,8.151 -0.378,10.128l0,17.397l7.015,0l0,-36.752z"/>
   </g>
   <g transform="matrix(1.33333 0 0 -1.33333 0 793.701)" id="g76">
    <path fill-rule="nonzero" fill="#19142e" id="path78" d="m577.07823,547.86375l14.58,0l0,-19.054c-2.364,-0.774 -4.588,-1.312 -6.675,-1.622c-2.087,-0.311 -4.218,-0.465 -6.397,-0.465c-5.549,0 -9.783,1.629 -12.708,4.889c-2.925,3.26 -4.387,7.939 -4.387,14.04c0,5.933 1.696,10.558 5.091,13.877c3.394,3.318 8.098,4.978 14.115,4.978c3.771,0 7.408,-0.755 10.909,-2.264l-2.587,-6.234c-2.683,1.341 -5.472,2.011 -8.373,2.011c-3.368,0 -6.067,-1.131 -8.093,-3.394c-2.03,-2.262 -3.041,-5.303 -3.041,-9.124c0,-3.991 0.815,-7.037 2.449,-9.139c1.636,-2.103 4.011,-3.156 7.128,-3.156c1.624,0 3.275,0.168 4.952,0.503l0,7.669l-6.963,0l0,6.485z"/>
   </g>
  </g>
 </g>
</svg>